<svg xmlns="http://www.w3.org/2000/svg" width="65" height="65"><rect width="100%" height="100%" fill="none"/><path fill="#452e12" d="M.5.5v12h12V.5zm13 13v12h12v-12zm-13 13v12h12v-12zm26 13v12h12v-12zm13 13v12h12v-12z"/><path fill="#54412b" d="M26.5.5v12h12V.5zm0 13v12h12v-12zm13 13v12h12v-12zm-39 13v12h12v-12zm0 13v12h12v-12z"/><path fill="#796144" d="M13.5.5v12h12V.5zm39 13v12h12v-12zm-39 13v12h12v-12zm39 0v12h12v-12zm-26 26v12h12v-12z"/><path fill="#cd9551" d="M52.5.5v12h12V.5zm-13 13v12h12v-12zm0 26v12h12v-12zm13 0v12h12v-12zm-39 13v12h12v-12z"/></svg>